<svg xmlns="http://www.w3.org/2000/svg" xmlns:xlink="http://www.w3.org/1999/xlink" width="500" zoomAndPan="magnify" viewBox="0 0 375 374.999991" height="500" preserveAspectRatio="xMidYMid meet" version="1.0"><defs><g/></defs><g fill="#000000" fill-opacity="1"><g transform="translate(41.587073, 261.20556)"><g><path d="M 38.375 -150.078125 C 17.796875 -150.078125 1.078125 -132.078125 1.078125 -112.78125 C 1.078125 -93.265625 14.15625 -80.1875 35.15625 -76.109375 L 35.15625 -74.609375 L 4.9375 -74.609375 L 4.9375 0.21875 L 116.640625 0.21875 C 159.953125 0.21875 167.875 -63.46875 124.78125 -73.109375 L 124.78125 -74.609375 L 150.9375 -74.609375 L 150.9375 -150.078125 Z M 38.375 -150.078125 "/></g></g></g><g fill="#000000" fill-opacity="1"><g transform="translate(196.176411, 261.20556)"><g><path d="M 6.640625 -150.078125 L 6.640625 0 L 97.34375 0 L 97.34375 -44.8125 L 131 -44.8125 L 131 -93.046875 L 99.90625 -93.046875 L 99.90625 -99.484375 L 131 -99.484375 L 131 -150.078125 Z M 6.640625 -150.078125 "/></g></g></g><g fill="#ffffff" fill-opacity="1"><g transform="translate(45.304137, 261.892644)"><g><path d="M -1.0625 0 L 32.265625 0 L 15.609375 -28.234375 Z M -1.0625 0 "/></g></g></g><g fill="#ffffff" fill-opacity="1"><g transform="translate(76.398239, 261.892644)"><g><path d="M 4.484375 -23.03125 C -0.9375 -17.59375 -0.9375 -8.8125 4.484375 -3.390625 C 9.90625 2.03125 18.6875 2.03125 24.125 -3.390625 L 14.28125 -13.234375 L 24.125 -23.03125 C 18.6875 -28.453125 9.90625 -28.453125 4.484375 -23.03125 Z M 4.484375 -23.03125 "/></g></g></g><g fill="#ffffff" fill-opacity="1"><g transform="translate(100.670475, 261.892644)"><g><path d="M 19.40625 -13.15625 L 24.53125 -13.15625 L 24.53125 -26.375 L 0.75 -26.375 L 0.75 -13.15625 L 6.21875 -13.15625 L 6.21875 0.03125 L 19.40625 0.03125 Z M 19.40625 -13.15625 "/></g></g></g></svg>